<svg width="160" height="160" viewBox="0 0 160 160" fill="none" xmlns="http://www.w3.org/2000/svg">
<g clip-path="url(#clip0_22203_75844)">
<path d="M0 0H160V160H0V0Z" fill="url(#paint0_linear_22203_75844)"/>
<path d="M117.143 94.2525C116.652 95.6383 116.135 96.9611 115.589 98.2297C114.297 101.148 112.706 103.924 110.843 106.515C108.355 109.973 106.312 112.361 104.737 113.687C102.3 115.87 99.686 116.987 96.886 117.047C94.8774 117.047 92.4574 116.493 89.6346 115.367C86.806 114.244 84.206 113.69 81.8288 113.69C79.3374 113.69 76.6631 114.244 73.8003 115.367C70.9374 116.493 68.6289 117.081 66.866 117.138C64.1803 117.25 61.5089 116.104 58.8374 113.69C57.1346 112.244 55.0031 109.767 52.4489 106.261C49.7089 102.518 47.4574 98.1697 45.6946 93.2154C43.8031 87.8668 42.8574 82.6868 42.8574 77.6725C42.8574 71.9297 44.1346 66.9754 46.6917 62.824C48.6457 59.5442 51.413 56.8241 54.726 54.9268C58.0267 53.0119 61.7674 51.9852 65.5831 51.9468C67.7146 51.9468 70.5088 52.5897 73.9831 53.8468C77.446 55.1125 79.6689 55.7525 80.646 55.7525C81.3746 55.7525 83.846 55.004 88.0317 53.5097C91.9917 52.124 95.3346 51.5497 98.0746 51.7754C105.495 52.3583 111.066 55.204 114.775 60.324C108.14 64.2325 104.86 69.704 104.923 76.724C104.983 82.1954 107.023 86.7497 111.035 90.364C112.821 92.0165 114.89 93.3338 117.143 94.2525ZM98.4803 31.4297C98.5374 32.0011 98.566 32.5754 98.566 33.144C98.566 37.4297 96.9574 41.4354 93.7489 45.1383C89.8717 49.544 85.1831 52.0868 80.0974 51.6868C80.0291 51.1476 79.9948 50.6046 79.9946 50.0611C79.9946 45.9468 81.8374 41.5411 85.1117 37.9411C86.746 36.1183 88.826 34.6011 91.3403 33.3925C93.8603 32.2011 96.2431 31.544 98.4803 31.4297Z" fill="white"/>
</g>
<defs>
<linearGradient id="paint0_linear_22203_75844" x1="29.7657" y1="27.7486" x2="194.706" y2="217.191" gradientUnits="userSpaceOnUse">
<stop stop-color="#1A1E21"/>
<stop offset="1" stop-color="#06060A"/>
</linearGradient>
<clipPath id="clip0_22203_75844">
<rect width="160" height="160" rx="80" fill="white"/>
</clipPath>
</defs>
</svg>
