<svg width="160" height="160" viewBox="0 0 160 160" fill="none" xmlns="http://www.w3.org/2000/svg">
<g clip-path="url(#clip0_22203_75847)">
<path d="M0 0H160V160H0V0Z" fill="#FE5300"/>
<path d="M23.9144 67.7142C24.5144 67.7142 25.343 68.1142 26.3716 68.8571C26.8287 69.1713 27.6287 69.7713 28.7144 70.6571L31.2287 72.5999C37.8106 77.3078 45.1708 80.8187 52.9716 82.9713C61.877 85.4762 71.0923 86.7075 80.343 86.6285C89.4859 86.5713 98.6001 85.2856 107.629 82.7428C112.506 81.3119 117.218 79.3677 121.686 76.9428C122.943 76.2856 123.857 76.2285 124.4 76.7999C125.4 77.8285 124.972 79.2571 123.143 81.0856C118.786 85.3076 113.68 88.6796 108.086 91.0285C102.772 93.3713 97.0287 95.0285 90.8573 96.0856C78.6663 98.079 66.1796 97.2283 54.3716 93.5999C48.4496 91.7606 42.8282 89.0654 37.6859 85.5999C32.4628 82.0682 27.8986 77.6491 24.2001 72.5428C23.6287 71.7142 23.2001 70.9142 23.0001 70.1428C22.7144 69.0856 22.8859 68.3142 23.5144 67.8571C23.6259 67.7623 23.7681 67.7115 23.9144 67.7142ZM115.343 69.9142C117.771 67.9973 120.62 66.6843 123.655 66.0832C126.69 65.4822 129.824 65.6103 132.8 66.4571C134.657 66.9428 135.886 67.5999 136.486 68.5142C137.057 69.3999 137.257 70.8571 137.057 72.8285C136.83 76.0084 135.899 79.0981 134.333 81.8748C132.767 84.6516 130.604 87.0461 128 88.8856C127.429 89.2856 126.886 89.3713 126.343 89.1713C125.772 88.9142 125.514 88.4285 125.543 87.7142C125.572 87.0856 125.886 86.2856 126.457 85.3428C128.257 82.3713 129.6 79.2856 130.457 76.1142C130.572 75.5999 130.657 75.0571 130.686 74.4856C130.743 73.7713 130.657 73.2571 130.457 72.9428C130.257 72.6571 129.8 72.3713 129.143 72.1713C128.629 72.0285 128.114 71.8856 127.6 71.8856C124.457 71.5999 121.257 71.8856 117.972 72.6571C116.943 72.8856 116.114 72.9142 115.572 72.7142C114.886 72.5142 114.572 72.0856 114.543 71.4285C114.543 70.8285 114.8 70.3142 115.343 69.9142Z" fill="white"/>
</g>
<defs>
<clipPath id="clip0_22203_75847">
<rect width="160" height="160" rx="80" fill="white"/>
</clipPath>
</defs>
</svg>
