<svg width="24" height="24" viewBox="0 0 24 24" fill="none" xmlns="http://www.w3.org/2000/svg">
<g clip-path="url(#clip0_10091_96)">
<g clip-path="url(#clip1_10091_96)">
<path d="M6.82616 22.8297L7.38668 20.2402C8.01188 17.352 5.81144 14.624 2.85663 14.624H0.289062C1.09878 18.253 3.55168 21.2621 6.82616 22.8297Z" fill="#F7D4AC"/>
<path d="M7.95117 23.2996C9.21609 23.7529 10.5792 23.9999 12 23.9999C17.7257 23.9999 22.5149 19.9894 23.7121 14.624H15.8792C12.3486 14.624 9.29601 17.0867 8.54901 20.5377L7.95117 23.2996Z" fill="#F7D4AC"/>
<path d="M23.9158 13.4244C23.971 12.957 23.9995 12.4815 23.9995 11.9992C23.9995 5.70334 19.1519 0.539806 12.9859 0.0380859L11.304 7.80818C10.6788 10.6964 12.8792 13.4244 15.834 13.4244H23.9158Z" fill="#F7D4AC"/>
<path d="M11.7668 0C5.247 0.124288 0 5.4488 0 11.9989C0 12.4811 0.0284374 12.9567 0.0837272 13.424H2.81091C6.34156 13.424 9.39412 10.9613 10.1411 7.51028L11.7668 0Z" fill="#F7D4AC"/>
</g>
</g>
<defs>
<clipPath id="clip0_10091_96">
<rect width="24" height="24" rx="12" fill="white"/>
</clipPath>
<clipPath id="clip1_10091_96">
<rect width="24" height="24" fill="white"/>
</clipPath>
</defs>
</svg>
