<svg xmlns="http://www.w3.org/2000/svg" xml:space="preserve" style="fill-rule:evenodd;clip-rule:evenodd;stroke-linecap:round;stroke-linejoin:round;stroke-miterlimit:1.5" viewBox="0 0 671 687">
  <ellipse cx="335.361" cy="343.361" rx="295.7" ry="303.7"/>
  <path d="M335.361 17.661c175.179 0 317.7 145.781 317.7 325.7s-142.521 325.7-317.7 325.7-317.7-145.781-317.7-325.7 142.521-325.7 317.7-325.7m0 22c-163.201 0-295.7 136.083-295.7 303.7s132.499 303.7 295.7 303.7 295.7-136.083 295.7-303.7-132.499-303.7-295.7-303.7" style="fill:#3c4049"/>
  <path d="M442.348 321.861s11.581 12.717 1 29M420.348 407.861l11 25M460.348 408.861l11 25M460.348 281.861l11 25M470.348 371.861l-10 8 10 8M62.348 432.861l10-25M594.348 310.861l-39-1M102.348 433.861l10-25M545.348 319.861v32M81.348 390.861l10-25M515.348 436.861h-20M545.348 361.861v34M485.348 319.861v33M485.348 404.861v32M505.348 320.861v30M505.348 362.861v30M346.348 279.861v30M346.348 321.861v30M306.348 320.861v30M306.348 405.861v30M346.348 362.861v30M346.348 405.861v30M385.348 405.861v30M416.348 309.861h18M415.348 351.861h18M415.348 393.861h18M437.348 436.861h18M496.348 267.861h117M357.348 436.861h18M316.348 436.861h18M216.348 436.861h18M157.348 351.861h18M78.348 435.861h18M255.348 267.861h-116M335.348 267.861h-58M315.348 393.861h-57M234.348 309.861h-75M378.348 267.861h76M365.348 363.861v30M365.348 320.861v30M365.348 279.861v30M405.348 319.861v30M514.348 309.861h-19M102.348 349.861l10-25M122.348 306.861l10-25M142.348 348.861l10-25M162.348 390.861l10-25M241.348 306.861l10-25M261.348 306.861l10-25M241.348 348.861l10-25M221.348 391.861l10-25M201.348 433.861l10-25M242.348 432.861l10-25M280.348 349.861l10-25M519.348 432.861l10-25M479.348 306.861l10-25M599.348 306.861l10-25M156.348 394.861h-37" style="fill:none;stroke:#fff;stroke-width:4px"/>
</svg>