<svg width="160" height="160" viewBox="0 0 160 160" fill="none" xmlns="http://www.w3.org/2000/svg">
<g clip-path="url(#clip0_22203_75873)">
<path d="M0 0H160V160H0V0Z" fill="#F0F3FA"/>
<path d="M67.057 52.6538C65.6284 49.6824 64.4855 47.3396 63.5998 45.5967C62.4083 43.3222 61.1019 41.1098 59.6855 38.9681C65.7964 35.9991 72.4899 34.4231 79.2835 34.3539C86.077 34.2848 92.8013 35.7241 98.9713 38.5681C103.686 40.7967 107.943 43.7681 111.743 47.4824C111.886 47.6253 111.886 47.7396 111.743 47.8538L101.057 58.6253H100.914C97.6868 55.3715 93.7513 52.9076 89.4147 51.4257C85.0781 49.9438 80.4577 49.4841 75.9141 50.0824C72.8284 50.4824 69.8855 51.3396 67.057 52.6538Z" fill="#F71603"/>
<path d="M59.6861 38.9453C61.0004 40.9453 62.3146 43.1739 63.6004 45.6025C64.4861 47.3167 65.6575 49.6882 67.0289 52.631C60.1 55.9202 54.6705 61.7069 51.8289 68.831C47.0289 67.031 42.2575 65.0882 37.5146 63.031C41.6644 52.532 49.5658 43.9484 59.6861 38.9453Z" fill="url(#paint0_linear_22203_75873)"/>
<path d="M51.8282 68.8547C49.1765 75.6288 49.0346 83.1279 51.4282 89.9975C46.6282 91.8833 41.7425 93.569 36.7996 95.0547C33.1891 84.6481 33.4426 73.2899 37.5139 63.0547C42.2568 65.0547 47.0282 67.0261 51.8282 68.8261V68.8547Z" fill="url(#paint1_linear_22203_75873)"/>
<path d="M125.171 80.3748C121.4 82.1462 117.629 83.9176 113.857 85.7462C112.057 86.6033 110.257 88.0319 108.514 88.5748H80V74.2891H125.629C125.686 74.2891 125.714 74.3462 125.714 74.4034L125.171 80.4033V80.3748Z" fill="#108CED"/>
<path d="M125.171 80.375C124.886 87.1464 123.4 93.4893 120.657 99.4036C117.911 105.38 113.917 110.7 108.943 115.004C106.927 111.994 104.631 109.181 102.086 106.604L98.7715 103.289C102.965 99.6471 106.095 94.9378 107.829 89.6607C108 89.1464 107.943 89.2607 108.229 88.575C109.971 88.0607 112.057 86.6036 113.857 85.7179C117.616 83.9108 121.388 82.1298 125.171 80.375Z" fill="url(#paint2_linear_22203_75873)"/>
<path d="M51.4284 90C53.4361 95.724 57.1196 100.712 61.9998 104.314C60.2855 106.2 57.8855 109.086 54.7712 112.943L52.0569 116.286C44.9986 110.86 39.6926 103.477 36.7998 95.0571C41.7427 93.5714 46.6284 91.8857 51.4284 90.0286V90Z" fill="url(#paint3_linear_22203_75873)"/>
<path d="M98.7717 103.289L102.057 106.603C104.629 109.175 106.915 111.975 108.972 115.003C101.07 121.698 91.1101 125.478 80.7563 125.712C70.4025 125.946 60.282 122.62 52.0859 116.289L54.7717 112.946C57.1016 109.996 59.5218 107.119 62.0288 104.318C67.4161 108.238 73.9392 110.285 80.6002 110.146C87.2601 109.99 93.6685 107.571 98.7717 103.289Z" fill="url(#paint4_linear_22203_75873)"/>
<path d="M49.0288 111.797C48.9431 111.797 48.8574 111.825 48.8574 111.911C48.8574 111.968 48.9146 112.054 49.0003 112.054C49.086 112.054 49.1717 112.025 49.2003 111.94C49.2003 111.883 49.1431 111.797 49.0288 111.797Z" fill="black"/>
</g>
<defs>
<linearGradient id="paint0_linear_22203_75873" x1="68.2861" y1="52.5167" x2="57.6575" y2="72.7167" gradientUnits="userSpaceOnUse">
<stop stop-color="#F71603"/>
<stop offset="0.47" stop-color="#FA6702"/>
<stop offset="1" stop-color="#FFA001"/>
</linearGradient>
<linearGradient id="paint1_linear_22203_75873" x1="47.4853" y1="67.6261" x2="42.9996" y2="95.0261" gradientUnits="userSpaceOnUse">
<stop stop-color="#FFA001"/>
<stop offset="0.99" stop-color="#FBCC07"/>
</linearGradient>
<linearGradient id="paint2_linear_22203_75873" x1="103.629" y1="106.718" x2="111.314" y2="87.6607" gradientUnits="userSpaceOnUse">
<stop stop-color="#03B58F"/>
<stop offset="1" stop-color="#108CED"/>
</linearGradient>
<linearGradient id="paint3_linear_22203_75873" x1="40.8855" y1="95.1714" x2="49.5141" y2="116.229" gradientUnits="userSpaceOnUse">
<stop stop-color="#FBC205"/>
<stop offset="1" stop-color="#00BC43"/>
</linearGradient>
<linearGradient id="paint4_linear_22203_75873" x1="81.7145" y1="116.432" x2="107.029" y2="110.318" gradientUnits="userSpaceOnUse">
<stop stop-color="#00BC43"/>
<stop offset="1" stop-color="#03B58F"/>
</linearGradient>
<clipPath id="clip0_22203_75873">
<rect width="160" height="160" rx="80" fill="white"/>
</clipPath>
</defs>
</svg>
