<svg width="160" height="160" viewBox="0 0 160 160" fill="none" xmlns="http://www.w3.org/2000/svg">
<g clip-path="url(#clip0_22203_75863)">
<path d="M0 0H160V160H0V0Z" fill="#F0F3FA"/>
<mask id="mask0_22203_75863" style="mask-type:luminance" maskUnits="userSpaceOnUse" x="28" y="45" width="104" height="70">
<path d="M28.5713 45.7109H131.428V114.282H28.5713V45.7109Z" fill="white"/>
</mask>
<g mask="url(#mask0_22203_75863)">
<path fill-rule="evenodd" clip-rule="evenodd" d="M81.417 60.1452C81.4074 60.1566 81.3979 60.168 81.3884 60.1795C73.1913 49.7024 66.3341 45.7109 58.1284 45.7109C41.3941 45.7109 28.5713 67.5567 28.5713 90.6881C28.5713 105.157 35.5484 114.282 47.237 114.282C55.6513 114.282 61.6999 110.305 72.457 91.4424C72.457 91.4424 76.917 83.5424 79.9999 78.0709V77.8538L81.417 60.1452ZM47.657 103.117C52.5113 103.117 55.5313 100.048 64.2541 86.3338C64.2541 86.3338 68.217 80.0195 74.757 69.9367C67.8713 60.0367 63.3656 56.9167 57.9799 56.9167C48.0341 56.9167 39.6884 74.0881 39.6884 90.8709C39.6884 98.7166 42.6599 103.12 47.6599 103.12L47.657 103.117Z" fill="url(#paint0_linear_22203_75863)"/>
<path fill-rule="evenodd" clip-rule="evenodd" d="M80.0429 78.0595L81.4286 61.4252L81.3258 60.0967L81.3915 60.1795C87.3629 52.0824 93.9543 45.7109 102.389 45.7109C118.311 45.7109 131.423 66.0481 131.429 90.2624C131.429 105.034 125.091 114.282 113.706 114.282C103.783 114.282 98.3058 108.688 88.4858 92.1967L83.44 83.6852C82.3223 81.7997 81.1889 79.9234 80.04 78.0566L80.0429 78.0595ZM91.1372 74.5167L97.1658 84.6024C106.597 99.8281 108.969 103.117 113.937 103.125C119.12 103.125 121.623 98.6766 121.623 91.0167C121.623 70.9167 112.763 54.5567 101.683 54.5567C96.3515 54.5567 91.8686 58.7538 86.4343 67.1681C88.0507 69.586 89.6187 72.036 91.1372 74.5167Z" fill="url(#paint1_linear_22203_75863)"/>
<path d="M81.3916 60.1795C87.363 52.0824 93.9544 45.7109 102.389 45.7109C118.312 45.7109 131.423 66.0481 131.429 90.2624L121.62 91.0167C121.62 70.9167 112.763 54.5567 101.683 54.5567C96.3516 54.5567 91.8687 58.7538 86.4344 67.1681L80.023 78.0281C77.5029 82.5005 74.981 86.9719 72.4573 91.4424C61.7002 110.305 55.6516 114.282 47.2373 114.282L47.6602 103.12C52.5144 103.12 55.5344 100.048 64.2573 86.3338C64.2573 86.3338 68.2202 80.0195 74.7602 69.9367L81.3916 60.1795Z" fill="url(#paint2_linear_22203_75863)"/>
<path d="M91.1367 74.5167C78.0624 53.1852 69.3538 45.7109 58.1253 45.7109L57.9824 56.9167C65.3367 56.9167 71.0367 62.7309 83.4338 83.6795L84.1939 84.9538L91.1367 74.5167Z" fill="#0466E0"/>
</g>
</g>
<defs>
<linearGradient id="paint0_linear_22203_75863" x1="55.7141" y1="51.4252" x2="72.857" y2="87.1395" gradientUnits="userSpaceOnUse">
<stop stop-color="#0064E0"/>
<stop offset="1" stop-color="#0082FB"/>
</linearGradient>
<linearGradient id="paint1_linear_22203_75863" x1="121.429" y1="91.4252" x2="91.4286" y2="79.9966" gradientUnits="userSpaceOnUse">
<stop stop-color="#0181FA"/>
<stop offset="1" stop-color="#0967DF"/>
</linearGradient>
<linearGradient id="paint2_linear_22203_75863" x1="64.2859" y1="82.8538" x2="140" y2="85.7109" gradientUnits="userSpaceOnUse">
<stop stop-color="#0082FB"/>
<stop offset="1" stop-color="#0180F9"/>
</linearGradient>
<clipPath id="clip0_22203_75863">
<rect width="160" height="160" rx="80" fill="white"/>
</clipPath>
</defs>
</svg>
