<svg width="24" height="24" viewBox="0 0 24 24" fill="none" xmlns="http://www.w3.org/2000/svg">
<rect width="24" height="24" rx="12" fill="#836EF9"/>
<g clip-path="url(#clip0_9914_13749)">
<path d="M11.8547 4C9.58642 4 4 9.68962 4 11.9999C4 14.3103 9.58642 20 11.8547 20C14.1229 20 19.7095 14.3102 19.7095 11.9999C19.7095 9.68972 14.123 4 11.8547 4ZM10.6307 16.5746C9.67416 16.3091 7.10252 11.7275 7.36321 10.7533C7.62389 9.77904 12.1223 7.15989 13.0787 7.4254C14.0353 7.69087 16.6069 12.2725 16.3463 13.2467C16.0855 14.2209 11.5871 16.8401 10.6307 16.5746Z" fill="#F4F3FF"/>
</g>
<defs>
<clipPath id="clip0_9914_13749">
<rect width="16" height="16" fill="white" transform="translate(4 4)"/>
</clipPath>
</defs>
</svg>
