<svg width="160" height="160" viewBox="0 0 160 160" fill="none" xmlns="http://www.w3.org/2000/svg">
<g clip-path="url(#clip0_22203_75860)">
<path d="M0 0H160V160H0V0Z" fill="url(#paint0_linear_22203_75860)"/>
<path d="M34.5346 75.2309C34.5346 75.2309 45.0831 61.5195 65.7146 60.0881V54.3909C42.8631 56.0538 22.8574 74.2824 22.8574 74.2824C22.8574 74.2824 34.2803 103.554 65.7146 106.245V100.911C42.6489 98.2795 34.5346 75.2252 34.5346 75.2252V75.2309ZM65.7146 90.3109V95.1938C48.2803 92.3766 43.226 75.9424 43.226 75.9424C43.226 75.9424 51.8117 67.0738 65.7146 65.7109V71.5252C65.7231 71.5252 65.7031 71.5252 65.7146 71.5252C58.4174 70.7309 52.4746 76.9138 52.4746 76.9138C52.4746 76.9138 55.886 87.3167 65.7146 90.3109ZM65.7146 45.7109V54.3909C66.386 54.3424 66.8403 54.3052 67.5146 54.2824C93.4946 53.4881 110.423 74.1738 110.423 74.1738C110.423 74.1738 90.9803 95.6109 70.726 95.6109C68.8689 95.6109 67.346 95.4566 65.7146 95.1938V100.911C67.1117 101.071 68.3431 101.171 69.8517 101.171C88.7003 101.171 102.332 92.4395 115.532 82.1081C117.72 83.6995 126.68 87.5652 128.52 89.2566C115.972 98.7852 86.7203 106.465 70.1403 106.465C68.5403 106.465 67.226 106.377 65.7146 106.245V114.282H137.143V45.7109H65.7146ZM65.7146 65.7109V60.0909C66.3774 60.0481 66.8317 60.0167 67.5146 59.9967C86.1974 59.4652 98.4546 74.4395 98.4546 74.4395C98.4546 74.4395 85.626 91.4252 71.4289 91.4252C69.386 91.4252 67.3631 90.8138 65.7146 90.3109V71.5252C72.9889 72.3252 74.2346 75.2395 78.6089 81.8481L88.3317 74.4138C88.3317 74.4138 80.5431 65.7109 68.5717 65.7109C67.2717 65.7109 66.9374 65.5938 65.7146 65.7109Z" fill="#76B900"/>
</g>
<defs>
<linearGradient id="paint0_linear_22203_75860" x1="29.7657" y1="27.7486" x2="194.706" y2="217.191" gradientUnits="userSpaceOnUse">
<stop stop-color="#1A1E21"/>
<stop offset="1" stop-color="#06060A"/>
</linearGradient>
<clipPath id="clip0_22203_75860">
<rect width="160" height="160" rx="80" fill="white"/>
</clipPath>
</defs>
</svg>
