<svg xmlns="http://www.w3.org/2000/svg" xmlns:xlink="http://www.w3.org/1999/xlink" width="328" height="328" viewBox="0 0 328 328">
  <title>Pengu</title>
  <defs>
    <circle id="a" cx="163.8" cy="163.8" r="163.8"/>
  </defs>
  <g fill="none" fill-rule="evenodd">
    <mask id="b" fill="#fff">
      <use xlink:href="#a"/>
    </mask>
    <use xlink:href="#a" fill="#e9f7fa"/>
    <path fill="#81abff" d="M244.16 85.04c-7.44-5.759-7.855-6.51-24.12-13.32s-37.292-5.903-41.4-5.76 5.423-11.027 4.68-14.4-20.068 9.681-25.92 12.24-9.239.616-19.8 2.16-25.321 4.056-39.6 11.16-21.429 9.907-36.72 34.92-5.9 60.142-.36 78.12 19.198 20.363 4.68 35.64-25.56 46.44-25.56 46.44l14.4 50.04 66.6 1.08s8.066-37.517 19.08-52.2c10.307-13.741 1.243-53.105-39.24-88.92-20.74-18.349-32.685-78.677 14.4-91.44s65.816 18.036 73.44 18.72 32.043-38.472 67.32-10.08c1.352 1.088-4.44-8.641-11.88-14.4" mask="url(#b)"/>
    <path fill="#81abff" d="M257.12 216.44s-15.067 8.16-9 13.32 14.211 7.62 33.48 54.72l11.16-18.72s-19.742-36.609-27-42.12-8.64-7.2-8.64-7.2" mask="url(#b)"/>
    <path fill="#0b0e16" d="M190.124 69.22c-.662-.08-1.252-.151-8.341-.018-3.42.064-4.483.969-5.734.455-3.836-1.575-1.724-3.354 4.276-12.43 2.829-4.279-2.148-1.337-3.432-.942-5.085 1.565-13.334 6.193-16.151 8.594-3.07 2.617-3.6 1.219-7.581 1.977-5.214.993-5.311.152-8.367.891-2.027.49-12.333 1.725-12.342 1.728-3.643 1.132-3.804.354-5.27.947-3.324 1.346-41.861 5.691-60.269 37.063-6.408 10.92-6.519 14.275-7.379 16.313-1.452 3.439-1.582 5.54-1.791 6.152-1.509 4.43-1.581 7.734-1.863 10.097-.244 2.043-.779 2.005-.726 12.323.03 5.735.512 5.662.952 11.421.121 1.582.661 2.513.744 3.093 1.398 9.731 7.309 21.504 7.355 21.607 10.535 23.498 10.873 24.067 8.764 28.99-6.91 16.129-20.747 23.953-31.455 56.858-.159.488-1.086 3.338-1.764 6.169-.155.647-.262.571-.55 1.198-2.556-2.198-2.552-2.184-3.046-2.632-1.519-1.377.006-3.989.39-5.211 2.063-6.556 2.031-6.566 2.248-7.024 1.864-3.92 1.81-5.928 6.904-15.467 9.871-18.488 23.605-32.425 23.205-38.25-.22-3.215-5.959-15.356-6.571-16.65-4.416-9.341-4.254-9.411-4.663-10.21-1.566-3.062-1.568-4.137-1.894-4.788-2.371-4.731-5.05-18.263-5.102-18.981-.949-13.23-.792-14.586-.646-15.846.981-8.461.572-8.5.784-9.208.793-2.649.003-2.797.983-5.348 1.84-4.792.381-7.004 7.89-22.049C73.271 82.815 98.98 73.805 99.441 73.53c4.462-2.667 28.3-10.159 55.054-11.787 5.261-.32 3.819-5.149 27.329-12.644 5.623-1.793 6.148 4.591 4.032 8.7-1.409 2.737-1.815 2.451-3.262 5.207-.86 1.638 7.273.332 10.186.941 11.862 2.48 13.539.645 28.65 6.023 3.216 1.144 21.63 7.697 33.474 26.465 12.408 19.661 12.701 32.618 12.28 45.378-.305 9.266 2.568 8.518 5.359 15.805 2.302 6.012 2.05 6.084 2.27 6.597.82 1.908.336 2.014.878 3.533 1.148 3.221.487 3.545.934 7.065.504 3.964.123 3.946-.129 7.94-.082 1.304-.56 8.867-4.131 15.796-7.724 14.987-12.885 14.591-11.271 16.264 7.841 8.131 20.101 19.1 32.818 50.262-.01.394.53.97-3.376 4.484-1.211-1.737-1.147-2.575-2.339-5.341-12.042-27.947-28.743-43.982-32.032-47.14 1.098-2.105 1.583-1.718 5.083-6.311 17.194-22.56 8.117-45.51 7.658-47.38-.786-3.2-6.155-12.41-6.394-15.007-.683-7.432 1.796-23.87-1.614-33.383-.873-2.436-1.925-12.71-13.332-24.883-13.982-14.92-47.784-21.592-48.202-21.473-.945.267-1.344 2.13-5.291 4.901-3.015 2.117.52 3.278 3.612 7.934 1.744 2.627 2.425 6.971-2.287 5.427-2.768-.907-9.327-.926-9.255-4.075.056-2.471 4.424-2.277 3.451-3.456-3.102-3.756-6.517-5.65-.455-8.646 1.553-.768 1.133-1.105 1.14-1.147l-.156-.359z" mask="url(#b)"/>
    <path fill="#0c0c0c" d="M135.387 141.792c.664-7.233 6.756-11.901 9.469-12.62 2.914-.773 5.401-1.843 10.867.921 7.071 3.575 8.437 13.481 8.055 16.122-2.193 15.145-14.264 15.505-18.896 13.033-10.218-5.454-9.533-14.14-9.494-17.455z" mask="url(#b)"/>
    <path fill="#10100f" d="M244.699 129.136c5.327 2.466 5.228 2.9 7.509 8.272.051.12 1.641 6.661.805 10.113-1.628 6.721-2.742 8.806-8.752 10.843-.86.292-5.048-.008-8.172-3.515-4.117-4.622-3.126-5.28-4.555-10.84-.035-.137-.967-17.284 13.165-14.873" mask="url(#b)"/>
    <path fill="#f1af4c" d="m201.139 155.752.876-.055c.199.175.241-.196.443-.018.374.329.033.548.452.805.335.206.351.041 4.877.567 4.46.288 9.65 3.68 10.453 5.052 1.488 2.54-3.328 7.965-6.953 10.537-1.186-.322-1.183-.322-2.223-.059-1.534.388-1.512.371-3.069.507-2.273.198-2.702-.24-3.567-.279-1.491-.066-1.146-1.269-2.598-1.069-.315.043-.619.151-.935.192-.683.088-.57-.398-4.347-1.416-.968-.261-.788.373-.95.45-6.419-3.57-8.736-6.253-2.47-10.073 6.379-3.888 6.91-2.834 7.339-3.315.549-.614.544-.617 1.362-.845 1.23-.344.962-.72 1.31-.981" mask="url(#b)"/>
    <path fill="#090f27" d="M99.921 315.664c.036-.172.292-.242.329-.414.107-.507-.141-1.297.663-3.518.308-.852.03-.907 2.338-11.079 1.054-4.643 4.054-15.05 3.439-28.569-.105-2.302-1.453-7.657-1.618-8.315-.68-2.701-.745-2.642-1.61-5.322-.574-1.778 1.935-1.854 3.2 1.699 1.899 5.336 2.43 5.609 3.06 11.052.131 1.134.825 1.053.722 10.58-.116 10.665-5.87 33.031-6.127 35.502-.364-.087-3.105-.742-4.395-1.617z" mask="url(#b)"/>
    <path fill="#f6f5f5" d="M153.6 149.404c-7.484-1.201-9.219-11.778-4.232-16.197 6.001-5.317 13.775 4.853 11.42 10.403-1.595 3.758-2.033 5.729-7.188 5.794" mask="url(#b)"/>
    <path fill="#0d1222" d="M281.5 278.131c-1.233 1.396-2.658 2.527-2.908 2.726-.632.502-.965.526-1.072-.254-.136-.986-3.409-9.864-3.723-10.716-3.993-10.83-6.052-13.396-9.141-19.435-4.874-9.528-7.26-10.461-4.963-10.913.412-.081.956-.188 3.8 3.618 8.983 12.025 13.478 23.139 18.006 34.975z" mask="url(#b)"/>
    <path fill="#f4f4f3" d="M240.415 140.034c-.006-.423-.065-4.549.324-5.278 4.031-7.551 9.249-.024 9.605 1.796 2.283 11.677-7.926 12.045-9.929 3.481z" mask="url(#b)"/>
    <path fill="#866741" d="M201.139 155.752c-.349.261-.08.638-1.31.981-.818.229-.813.231-1.362.845-.43.48-.96-.573-7.339 3.315-6.267 3.819-3.949 6.502 2.47 10.073 1.783 1.095 6.36 3.113 6.637 3.145 6.101.706 6.105.356 10.567-1.126.3-.1.233-.165.486-.344 3.625-2.573 8.44-7.997 6.953-10.537-.803-1.372-5.993-4.764-10.453-5.052-4.526-.527-4.542-.362-4.877-.567-.419-.257-.077-.476-.452-.805-.202-.178-.244.193-.443.018 2.868-.108 2.849-.125 3.097-.116 6.102.206 5.986.895 6.624 1.032.665.143 4.566.979 7.418 4.159 3.687 4.113-4.504 10.799-6.164 12.237-3.498 3.028-9.457 3.719-11.436 2.885-1.718-.724-1.843-.261-3.135-.885-4.168-2.015-9.184-3.853-12.084-8.196-3.047-4.563 8.335-10.73 14.804-11.061z" mask="url(#b)"/>
    <path fill="#744311" d="M216.118 163.901c.226.464.227.422.552.861-1.62 1.288-6.476 2.19-7.591 2.233-9.817.375-13.988-.68-16.683-1.059.034-.662-.008-.68.037-.715.685-.533 9.254-.013 10.026.08 3.551.426 3.522.15 7.054-.147 3.362-.283 3.262-.683 6.605-1.253" mask="url(#b)"/>
    <path fill="#e8e8e6" d="M146.403 151.929c-1.076 6.094-8.553 1.278-5.152-2.236 1.178-1.217 4.768-1.579 5.152 2.236" mask="url(#b)"/>
    <path fill="#e9e9ea" d="M237.679 146.677c5.956 2.349-.162 8.184-2.556 4.323-.977-1.576-.245-2.845-.123-3.057.813-1.408 1.065-1.169 2.679-1.266" mask="url(#b)"/>
    <path fill="#e6b061" d="M193.597 170.966c.162-.077-.018-.711.95-.45 3.777 1.019 3.665 1.505 4.347 1.416.315-.041.62-.149.935-.192 1.453-.2 1.107 1.003 2.598 1.069.865.038 1.294.477 3.567.279 1.558-.136 1.536-.119 3.069-.507 1.041-.263 1.037-.263 2.223.059-.253.179-.186.245-.486.344-4.462 1.483-4.467 1.832-10.567 1.126-.277-.032-4.854-2.051-6.637-3.145z" mask="url(#b)"/>
    <path fill="#e7f1f5" d="M294.617 264.173c-.882-2.167.961-1.351 1.084-1.296.628.278-.281 1.789-.719 1.736-.189-.023-.176-.417-.365-.44" mask="url(#b)"/>
    <path fill="#bf8b40" d="m216.565 163.456.445-.205c.178.542.385.587-.006 1.008l-.334.502c-.324-.439-.326-.397-.552-.861z" mask="url(#b)"/>
    <path fill="#f3b653" d="M193.114 161.422c.058-.055 4.185-3.581.934-.348-.553.55-.672.25-.934.348" mask="url(#b)"/>
  </g>
</svg>