<svg xmlns="http://www.w3.org/2000/svg" width="121" height="121" viewBox="0 0 121 121">
  <title>Pepe</title>
  <g fill="none" fill-rule="evenodd">
    <circle cx="60.5" cy="60.5" r="60.5" fill="#278700"/>
    <path fill="#9d3e03" d="M32.938 62.984q-2.718.173-2.718 1.621t3.35 3.902a174 174 0 0 1 3.24 2.343q1.074.805 3.24 1.63l7.463 4.775 4.754 1.64 4.956.364 2.781.755 2.635.532 22.036.43q8.438-3.063 9.59-5.78 1.151-2.715.571-5.195l-.572-.93 3.107-4.466q1.955-2.724 0-4.094t-1.955-2.04l.325 3.029-.905 2.468-4.055 3.835-3.43 2.198-9.88.463-14.027-.463h-2.71L56 69.071h-2l-1.614-.907-1.136-.629q-2.212-.269-2.79 0-.579.268-3.087-.354l-8.853-3.725q-2.785-.649-3.272-.472-.486.175-.31 0"/>
    <path fill="#fdfffe" d="M37.907 42.065q1.774-.556 6.714-.765c4.941-.207 18.593-.414 19.254-.207.66.207 2.305 6.885 3.368 7.21q0 1.263-8.886 2.137-9.887-1.602-11.193-2.137c-1.307-.536-3.393-2.047-4.174-2.764q-.78-.717-5.083-3.474"/>
    <path fill="#fefefe" d="M94.724 44.95q-3.158 4.125-3.943 4.125c-.785 0-15.278 1.062-16.254.531-.975-.531-.933-2.185 0-4.067.934-1.882 4.725-4.946 8.389-4.946s6.354.83 7.457 1.472q1.104.642 4.35 2.884"/>
    <path fill="#000" d="M85.47 40.815q2.38 2.522 1.88 5.165-.499 2.644-1.274 3.489l-9.58.97q-2.346-6.94.976-8.62c3.322-1.68 4.028-1.35 7.203-1.35q-.06.12.796.346M56.721 40.593q3.694 5 0 9.847-.035-.057-3.579-.685L50 49.075 46.141 48l-2.384-1q-.984-5.606 1.9-6.242 2.882-.638 11.064-.165"/>
    <circle cx="79" cy="47" r="1" fill="#fff"/>
    <circle cx="84" cy="46" r="1.5" fill="#fff" stroke="#e7e7e7"/>
    <circle cx="54" cy="45" r="1.5" fill="#fff" stroke="#e7e7e7"/>
    <circle cx="79.5" cy="43.5" r="1.5" fill="#fff"/>
    <circle cx="48" cy="43" r="1" fill="#fff"/>
    <circle cx="49" cy="46" r="1" fill="#fff"/>
    <g stroke="#000">
      <path d="M16.093 29.027q2.869-3.396 7.318-6.273 1.054-1.006 4.186-6.223 4.328-5.077 7.286-5.738c2.959-.662 9.757-1.404 13.468-.375 3.711 1.03 6.78 3.637 7.447 5.294s.923 2.65.923 3.756v1.615M82.37 25.06q-2.388-7.83-6.933-12.486c-4.544-4.657-16.558-2.31-16.558-.639q-.117.09-3.332 2.87"/>
      <path d="M33.937 25.102q6.682-6.392 19.096-4.673t14.21 14.627"/>
      <path d="M91.476 33.562q-8.11-10.388-16.171-10.765t-13.042 1.22M31.407 40.753q2.353-6.599 6.598-7.293c4.245-.694 4.772-1.042 5.973-1.042h18.285q3.585.35 6.731 4.549t2.313 6.69"/>
      <path d="M70.381 46.704Q66.911 33.97 54 32.418M31.407 40.753q-.324 1.095.603 1.095h5.218"/>
      <path d="M34.276 41.848q3.596-6.792 11.648-6.792 8.054 0 8.054.39 1.31-.18 2.743 1.206a9.8 9.8 0 0 0 3.342 2.12q3.06.446 3.812 1.487c.753 1.041 1.29.806 2.863 5.27q1.574 4.463 2.256 3.308"/>
      <path d="M36.81 42.065q5.225 2.592 6.59 4.639t10.578 3.19q5.387 1.77 8.285.885a65 65 0 0 0 5.7-2.036M36.81 42.065q1.255-1.312 6.756-1.312c5.5 0 7.212-.987 20.309-.494M78.646 34.38q13.304-3.137 17.41 1.788-.07 6.057-.723 5.567"/>
      <path d="M74.886 39.735q3.952-3.786 7.007-4.233 3.055-.445 9.958 0 2.229.45 4.204 1.964M38.57 47.04q2.537 3.123 6.99 4.363c4.45 1.24 18.406 2.437 20.404 2.437"/>
      <path d="M68.994 49.075q1.64 1.685.658 2.534c-.982.85-5.361 3.053-6.375 4.403s-4.75 3.871-5.831 4.298-5.298 2.23-5.18 2.23M73.552 52.802q2.25 1.557 9.999 1.038M82.916 59.663l-6.419-5.823M86.076 55.808H89.5q1.469-.637 1.976-2.422"/>
      <path d="M86.982 53.386q4.64 1.991 8.59-4.812 2.512-6.51-4.096-11.067-6.822-.531-8.56 0c-.716.218-2.507 1.188-4.367 2.535-2.66 1.926-5.463 4.624-5.463 6.998q0 4.035 3.41 3.4h12.28q3.588-.773 6.796-5.546.009.009-4.842-3.122-1.019-1.264-4.654-1.65-3.635-.387-6.576-.387l-.854.307M29.362 57.626q4.575-1.312 4.575-.875M26.577 63.456q3.51-3.523 8.194-3.523"/>
      <path d="M93.873 68.568c2.795 5.113-.177 6.871-1.38 8.364q-1.2 1.493-7.818 4.043h-18.71c-2.55 0-5.42-.541-7.13-1.128q-1.711-.588-4.857-.41-4.526-.52-8.323-3.374t-7.77-4.408l-6.478-4.307q-2.044-1.852-1.383-3.892.662-2.04 6.785 0l8.263 3.562q2.715.702 4.38.33c1.666-.37 2.812.804 3.714 1.22.9.416 5.112.8 7.379 1.224s14.341.381 22.37.381q8.03 0 12.472-8.673.342-5.803-3.297-8.114"/>
      <path d="M95.416 59.142q3.714 1.883 2.953 3.86c-.76 1.978-3.03 3.816-3.858 5.275q-.827 1.458-4.257 4.25-2.728 1.693-10.548 1.693c-7.82 0-13.61-1.1-16.552-1.1-2.941 0-9.623.048-11.71-.592-2.087-.641-6.214-2.27-8.69-2.617-2.474-.347-4.316-1.347-5.526-2.288-1.209-.942-2.439-2.452-3.658-1.958M88.776 87.674l2.7-4.295q2.267-3.519.611-5.503M103.915 102.894q-2.958-4.068-4.187-4.795c-1.23-.727-3.116-3.285-3.515-3.99q-.399-.704-10.527-8.448-2.71-2.006-5.819-.337t-9.746 8.054q-1.34 2.184 0 3.453c1.34 1.268 3.752 1.494 5.077.747s2.854-2.93 5.382-3.848c2.528-.92 3.38-1.603 5.106 0s.104 4.274-.793 4.914c-.898.64-2.13 1.393-3.932 2.225-1.8.833-3.835 3.228-3.835 3.669s2.25 3.734 7.767 4.81"/>
      <path d="M91.38 101.503q-5.792 5.059-5.792 6.782c0 1.723-.09 2.7 1.095 3.645s3.5.901 4.098.901 3.904-5.638 6.028-7.184M89.926 94.628q-3.334 1.674-3.837 2.329M85.098 93.44q-2.352 2.823-3.47 3.517c-1.119.695-2.833 1.37-3.7 2.179-.868.808-3.065 1.728-3.065 2.367M72.48 91.345q2.05 1.14 1.669 2.514c-.382 1.374.06 1.562-.805 2.33M69.452 95.476q-1.77-2.683-3.418-2.683c-1.647 0-3.395.548-3.395 2.356q0 1.807 2.484 4.524 2.862 1.897 3.263 3.966c.401 2.07-.263 4.049.401 5.253.665 1.204 1.635 3.003 1.635 3.94s2.058 3.71 2.922 3.71q.864 0 2.516 2.321"/>
      <path d="M61.36 119.37q5.364-8.754 7.427-10.478"/>
    </g>
  </g>
</svg>