<svg xmlns="http://www.w3.org/2000/svg" xml:space="preserve" style="fill-rule:evenodd;clip-rule:evenodd;stroke-linecap:round;stroke-linejoin:round;stroke-miterlimit:1.5" viewBox="0 0 934 934">
  <circle cx="466.504" cy="466.504" r="466.504" style="fill:#fff"/>
  <path d="m350 368.008 232 218-113 125s-120.41 107.961-227 1-11.615-219.92-3-230 111-114 111-114" style="fill:#52d391"/>
  <path d="M546 552.008s-85.56 103.49-117 124-59.468 45.517-128 29-98.593-68.436-102-110c0 0-13.335 90.42 90 150 48.21 27.797 135.579 7.778 167-23s126-137 126-137z" style="fill:#288e66"/>
  <path d="M262 577.008s-9.928 35.968 4 57M279 658.008s5.02 11.75 16 18M286 537.008s-9.575 3.328-15 14" style="fill:none;stroke:#fff;stroke-width:13px"/>
  <path d="M561 534.008s93.872-88.031 117-126 79.07-142.363-43-222c0 0 53.593 12.25 86 60s32.791 112.39 21 139-19 38-19 38l-125 145z" style="fill:#bfcfd3"/>
  <path d="M231 476.008c33.55-35.803 217.031-236.207 241-258 80.9-73.557 187.671-59.842 237-7 84.356 90.363 47.14 187.292 23 223-20.304 30.035-228.162 253.688-252 280-33.275 36.729-150.937 98.628-242 8-91.738-91.3-43.4-207.156-7-246" style="fill:none;stroke:#194142;stroke-width:30px"/>
  <path d="m350.736 356.864 235.252 220.852" style="fill:none;stroke:#194142;stroke-width:32px;stroke-linecap:square;stroke-linejoin:miter"/>
</svg>