<svg width="200" height="200" viewBox="0 0 200 200" fill="none" xmlns="http://www.w3.org/2000/svg">
<rect width="200" height="200" rx="100" fill="#0013C5"/>
<path d="M40.6733 109.409H49.2642L54.3523 116.006L57.983 120.301L66.7017 131.5H57.4972L51.5653 123.983L49.0341 120.403L40.6733 109.409ZM67.9545 100.818C67.9545 106.46 66.8977 111.293 64.7841 115.315C62.6875 119.321 59.8239 122.389 56.1932 124.52C52.5795 126.651 48.4801 127.716 43.8949 127.716C39.3097 127.716 35.2017 126.651 31.571 124.52C27.9574 122.372 25.0938 119.295 22.9801 115.29C20.8835 111.267 19.8352 106.443 19.8352 100.818C19.8352 95.1761 20.8835 90.3523 22.9801 86.3466C25.0938 82.3239 27.9574 79.2472 31.571 77.1165C35.2017 74.9858 39.3097 73.9205 43.8949 73.9205C48.4801 73.9205 52.5795 74.9858 56.1932 77.1165C59.8239 79.2472 62.6875 82.3239 64.7841 86.3466C66.8977 90.3523 67.9545 95.1761 67.9545 100.818ZM58.4176 100.818C58.4176 96.8466 57.7955 93.4972 56.5511 90.7699C55.3239 88.0256 53.6193 85.9545 51.4375 84.5568C49.2557 83.142 46.7415 82.4347 43.8949 82.4347C41.0483 82.4347 38.5341 83.142 36.3523 84.5568C34.1705 85.9545 32.4574 88.0256 31.2131 90.7699C29.9858 93.4972 29.3722 96.8466 29.3722 100.818C29.3722 104.79 29.9858 108.148 31.2131 110.892C32.4574 113.619 34.1705 115.69 36.3523 117.105C38.5341 118.503 41.0483 119.202 43.8949 119.202C46.7415 119.202 49.2557 118.503 51.4375 117.105C53.6193 115.69 55.3239 113.619 56.5511 110.892C57.7955 108.148 58.4176 104.79 58.4176 100.818ZM96.5014 109.409H105.092L110.18 116.006L113.811 120.301L122.53 131.5H113.325L107.393 123.983L104.862 120.403L96.5014 109.409ZM123.783 100.818C123.783 106.46 122.726 111.293 120.612 115.315C118.516 119.321 115.652 122.389 112.021 124.52C108.408 126.651 104.308 127.716 99.723 127.716C95.1378 127.716 91.0298 126.651 87.3991 124.52C83.7855 122.372 80.9219 119.295 78.8082 115.29C76.7116 111.267 75.6634 106.443 75.6634 100.818C75.6634 95.1761 76.7116 90.3523 78.8082 86.3466C80.9219 82.3239 83.7855 79.2472 87.3991 77.1165C91.0298 74.9858 95.1378 73.9205 99.723 73.9205C104.308 73.9205 108.408 74.9858 112.021 77.1165C115.652 79.2472 118.516 82.3239 120.612 86.3466C122.726 90.3523 123.783 95.1761 123.783 100.818ZM114.246 100.818C114.246 96.8466 113.624 93.4972 112.379 90.7699C111.152 88.0256 109.447 85.9545 107.266 84.5568C105.084 83.142 102.57 82.4347 99.723 82.4347C96.8764 82.4347 94.3622 83.142 92.1804 84.5568C89.9986 85.9545 88.2855 88.0256 87.0412 90.7699C85.8139 93.4972 85.2003 96.8466 85.2003 100.818C85.2003 104.79 85.8139 108.148 87.0412 110.892C88.2855 113.619 89.9986 115.69 92.1804 117.105C94.3622 118.503 96.8764 119.202 99.723 119.202C102.57 119.202 105.084 118.503 107.266 117.105C109.447 115.69 111.152 113.619 112.379 110.892C113.624 108.148 114.246 104.79 114.246 100.818ZM152.33 109.409H160.92L166.009 116.006L169.639 120.301L178.358 131.5H169.153L163.222 123.983L160.69 120.403L152.33 109.409ZM179.611 100.818C179.611 106.46 178.554 111.293 176.44 115.315C174.344 119.321 171.48 122.389 167.849 124.52C164.236 126.651 160.136 127.716 155.551 127.716C150.966 127.716 146.858 126.651 143.227 124.52C139.614 122.372 136.75 119.295 134.636 115.29C132.54 111.267 131.491 106.443 131.491 100.818C131.491 95.1761 132.54 90.3523 134.636 86.3466C136.75 82.3239 139.614 79.2472 143.227 77.1165C146.858 74.9858 150.966 73.9205 155.551 73.9205C160.136 73.9205 164.236 74.9858 167.849 77.1165C171.48 79.2472 174.344 82.3239 176.44 86.3466C178.554 90.3523 179.611 95.1761 179.611 100.818ZM170.074 100.818C170.074 96.8466 169.452 93.4972 168.207 90.7699C166.98 88.0256 165.276 85.9545 163.094 84.5568C160.912 83.142 158.398 82.4347 155.551 82.4347C152.705 82.4347 150.19 83.142 148.009 84.5568C145.827 85.9545 144.114 88.0256 142.869 90.7699C141.642 93.4972 141.028 96.8466 141.028 100.818C141.028 104.79 141.642 108.148 142.869 110.892C144.114 113.619 145.827 115.69 148.009 117.105C150.19 118.503 152.705 119.202 155.551 119.202C158.398 119.202 160.912 118.503 163.094 117.105C165.276 115.69 166.98 113.619 168.207 110.892C169.452 108.148 170.074 104.79 170.074 100.818Z" fill="white"/>
</svg>
