<svg width="56" height="56" viewBox="0 0 56 56" fill="none" xmlns="http://www.w3.org/2000/svg">
<g clip-path="url(#clip0_21242_53845)">
<path d="M0 0H56V56H0V0Z" fill="#ADABB8"/>
<path d="M21.2474 21.555H35.0324L33.0224 16.162C32.9442 15.9408 32.8014 15.7481 32.6124 15.609L21.2474 21.555ZM21.2094 15.154C21.6984 13.842 22.7724 13 23.9564 13H32.1064C33.2914 13 34.3664 13.842 34.8544 15.154L36.8634 20.547C37.4654 22.165 36.4924 24 35.0324 24H21.0324C19.5724 24 18.5984 22.165 19.2004 20.547L21.2094 15.154ZM10.2344 35.555H23.9914L21.9834 30.162C21.9047 29.9405 21.7612 29.7478 21.5714 29.609L10.2344 35.555ZM10.1964 29.154C10.6854 27.842 11.7604 27 12.9434 27H21.0674C22.2514 27 23.3254 27.842 23.8144 29.154L25.8234 34.547C26.4264 36.165 25.4524 38 23.9904 38H10.0174C8.5574 38 7.5844 36.165 8.1874 34.547L10.1964 29.154ZM46.0864 35.555H32.2364L43.6664 29.61C43.8444 29.736 43.9894 29.926 44.0784 30.163L46.0864 35.555ZM34.9434 27C33.7594 27 32.6854 27.842 32.1974 29.154L30.1874 34.547C29.5864 36.165 30.5594 38 32.0204 38H46.0864C47.5464 38 48.5204 36.165 47.9174 34.547L45.9074 29.154C45.4224 27.842 44.3464 27 43.1634 27H34.9434Z" fill="white"/>
</g>
<defs>
<clipPath id="clip0_21242_53845">
<rect width="56" height="56" rx="28" fill="white"/>
</clipPath>
</defs>
</svg>
