<svg width="24" height="24" viewBox="0 0 24 24" fill="none" xmlns="http://www.w3.org/2000/svg">
<rect width="24" height="24" rx="12" fill="black"/>
<g clip-path="url(#clip0_10128_87)">
<path d="M9.53245 7.16706C9.59683 7.10588 9.66538 7.04918 9.73745 6.99761C10.2541 6.62413 10.9601 6.43803 11.8515 6.43803C12.7429 6.43803 13.4844 6.67089 14.0735 7.13759C14.5882 7.54534 14.9178 8.07257 15.0594 8.71608H17.5092C17.4403 7.92555 17.1876 7.21286 16.75 6.578C16.2612 5.86755 15.5915 5.31598 14.7426 4.92136C13.8944 4.52641 12.8871 4.3291 11.8515 4.3291C11.0068 4.3291 10.2339 4.45338 9.53309 4.70194V7.16706H9.53245ZM14.7035 16.834C14.6286 16.8946 14.5511 16.9519 14.4713 17.006C13.9037 17.3939 13.1593 17.5874 12.2388 17.5874C11.1881 17.5874 10.3316 17.3139 9.67018 16.7684C9.06992 16.2751 8.7147 15.6418 8.59842 14.8657L6.16406 14.8449C6.22652 15.7344 6.48726 16.5336 6.94818 17.2418C7.44979 18.016 8.15576 18.6159 9.06224 19.0381C9.97 19.4599 11.0184 19.6723 12.2141 19.6723C13.1273 19.6723 13.9569 19.5339 14.7048 19.2559V16.8344L14.7035 16.834ZM8.78517 12.2933C9.4764 12.5816 10.289 12.8045 11.2247 12.9615L11.3332 12.9829C12.324 13.1697 13.0789 13.333 13.5978 13.4772C14.1161 13.6213 14.5331 13.8446 14.8503 14.1457C15.1648 14.4468 15.3243 14.8475 15.3243 15.3504C15.3243 15.8532 15.1824 16.2773 14.9012 16.6185H17.5469C17.7327 16.1425 17.8247 15.6325 17.8247 15.089C17.8247 14.1556 17.5972 13.4029 17.1443 12.8282L17.1485 12.8302C16.6956 12.2555 16.1152 11.8337 15.4111 11.5595C14.7074 11.2859 13.8656 11.063 12.8874 10.891H12.8662C11.9178 10.719 11.184 10.5556 10.6657 10.3967C10.149 10.2398 9.73425 10.0252 9.42611 9.75164C9.11765 9.48034 8.9623 9.0918 8.9623 8.58956C8.9623 8.08731 9.08658 7.7087 9.33642 7.38262H6.69898C6.55196 7.81248 6.47765 8.27309 6.47765 8.76348C6.47765 9.68214 6.68777 10.4288 7.11314 11.0012C7.53659 11.5758 8.09329 12.0063 8.78453 12.2923L8.78517 12.2933Z" fill="white"/>
</g>
<defs>
<clipPath id="clip0_10128_87">
<rect width="11.6696" height="15.3432" fill="white" transform="translate(6.16406 4.3291)"/>
</clipPath>
</defs>
</svg>
