<svg width="200" height="200" viewBox="0 0 200 200" fill="none" xmlns="http://www.w3.org/2000/svg">
<rect width="200" height="200" rx="100" fill="#27362D"/>
<path d="M57.358 87.8125C57.0928 85.3314 55.9754 83.3996 54.0057 82.017C52.0549 80.6345 49.517 79.9432 46.392 79.9432C44.1951 79.9432 42.3106 80.2746 40.7386 80.9375C39.1667 81.6004 37.964 82.5 37.1307 83.6364C36.2973 84.7727 35.8712 86.0701 35.8523 87.5284C35.8523 88.7405 36.1269 89.7917 36.6761 90.6818C37.2443 91.572 38.0114 92.3295 38.9773 92.9545C39.9432 93.5606 41.0133 94.072 42.1875 94.4886C43.3617 94.9053 44.5455 95.2557 45.7386 95.5398L51.1932 96.9034C53.3902 97.4148 55.5019 98.1061 57.5284 98.9773C59.5739 99.8485 61.4015 100.947 63.0114 102.273C64.6402 103.598 65.928 105.199 66.875 107.074C67.822 108.949 68.2955 111.146 68.2955 113.665C68.2955 117.074 67.4242 120.076 65.6818 122.67C63.9394 125.246 61.4205 127.263 58.125 128.722C54.8485 130.161 50.8807 130.881 46.2216 130.881C41.6951 130.881 37.7652 130.18 34.4318 128.778C31.1174 127.377 28.5227 125.331 26.6477 122.642C24.7917 119.953 23.7879 116.676 23.6364 112.812H34.0057C34.1572 114.839 34.7822 116.525 35.8807 117.869C36.9792 119.214 38.4091 120.218 40.1705 120.881C41.9508 121.544 43.9394 121.875 46.1364 121.875C48.428 121.875 50.4356 121.534 52.1591 120.852C53.9015 120.152 55.2652 119.186 56.25 117.955C57.2348 116.705 57.7367 115.246 57.7557 113.58C57.7367 112.064 57.2917 110.814 56.4205 109.83C55.5492 108.826 54.3277 107.992 52.7557 107.33C51.2027 106.648 49.3845 106.042 47.3011 105.511L40.6818 103.807C35.8902 102.576 32.1023 100.71 29.3182 98.2102C26.553 95.6913 25.1705 92.3485 25.1705 88.1818C25.1705 84.7538 26.0985 81.7519 27.9545 79.1761C29.8295 76.6004 32.3769 74.6023 35.5966 73.1818C38.8163 71.7424 42.4621 71.0227 46.5341 71.0227C50.6629 71.0227 54.2803 71.7424 57.3864 73.1818C60.5114 74.6023 62.964 76.5814 64.7443 79.1193C66.5246 81.6383 67.4432 84.536 67.5 87.8125H57.358ZM77.6918 130V71.8182H99.5099C103.98 71.8182 107.73 72.6515 110.76 74.3182C113.809 75.9848 116.11 78.2765 117.663 81.1932C119.235 84.0909 120.021 87.3864 120.021 91.0795C120.021 94.8106 119.235 98.125 117.663 101.023C116.091 103.92 113.771 106.203 110.703 107.869C107.635 109.517 103.857 110.341 99.3679 110.341H84.9077V101.676H97.9474C100.561 101.676 102.701 101.222 104.368 100.312C106.035 99.4034 107.266 98.1534 108.061 96.5625C108.875 94.9716 109.283 93.1439 109.283 91.0795C109.283 89.0152 108.875 87.197 108.061 85.625C107.266 84.053 106.025 82.8314 104.339 81.9602C102.673 81.0701 100.523 80.625 97.8906 80.625H88.2315V130H77.6918ZM125.199 71.8182H137.102L151.335 97.5568H151.903L166.136 71.8182H178.04L156.875 108.295V130H146.364V108.295L125.199 71.8182Z" fill="white"/>
</svg>
