<svg width="160" height="160" viewBox="0 0 160 160" fill="none" xmlns="http://www.w3.org/2000/svg">
<g clip-path="url(#clip0_22203_75850)">
<path d="M0 0H160V160H0V0Z" fill="#E82127"/>
<path d="M80 131.427L92.8571 59.9989C105.049 59.9989 108.84 60.2046 109.394 65.6846C109.394 65.6846 117.574 62.6217 121.697 56.3989C105.603 48.9132 89.4285 48.5703 89.4285 48.5703L80 59.9989L70.5714 48.5703C70.5714 48.5703 54.3999 48.9075 38.3057 56.3989C42.4257 62.6189 50.6085 65.6846 50.6085 65.6846C51.1657 60.1989 55.0342 60.0075 67.1428 59.9989L80 131.427Z" fill="white"/>
<path d="M80.0004 45.5629C93.0118 45.4629 107.612 47.6114 122.858 54.2857C124.895 50.6 125.715 48.5714 125.715 48.5714C109.049 41.9486 93.4404 40.0571 80.0004 40C66.5576 40.0571 50.9518 41.9486 34.2861 48.5714C34.2861 48.5714 35.3261 50.98 37.1433 54.2857C52.3861 47.6114 66.989 45.4629 80.0004 45.5629Z" fill="white"/>
</g>
<defs>
<clipPath id="clip0_22203_75850">
<rect width="160" height="160" rx="80" fill="white"/>
</clipPath>
</defs>
</svg>
