<svg xmlns="http://www.w3.org/2000/svg" width="355" height="355" viewBox="0 0 355 355">
  <title>Useless</title>
  <g fill="none" fill-rule="evenodd">
    <circle cx="177.5" cy="177.5" r="177.5" fill="#fab824"/>
    <circle cx="177.5" cy="177.5" r="147.05" fill="#fab824" stroke="#fff1d6" stroke-width="18"/>
    <path fill="#fff1d6" d="M97.754 100.719h77.068v9.271q-13.917 2.606-13.918 13.918v84.119q.787 34.32 30.753 34.32c29.966 0 35.373-20.695 35.373-34.32v-75.355q-2.078-15.097-14.561-16.136V100.72h55.512v9.271q-14.76 1.45-14.76 17.063v75.697q-5.174 60.997-61.564 65.85-56.39 4.854-73.678-31.126-5.63-13.5-5.629-31.203v-68.988q.54-17.575-14.596-20.747z"/>
    <path fill="#fff1d6" d="M97.754 100.719h77.068v9.271q-13.917 2.606-13.918 13.918v84.119q.787 34.32 30.753 34.32c29.966 0 35.373-20.695 35.373-34.32v-75.355q-2.078-15.097-14.561-16.136V100.72h55.512v9.271q-14.76 1.45-14.76 17.063v75.697q-5.174 60.997-61.564 65.85-56.39 4.854-73.678-31.126-5.63-13.5-5.629-31.203v-68.988q.54-17.575-14.596-20.747z"/>
    <path fill="#ecd8a4" d="M112.993 115.03q3.524 3.995 4.739 16.508-.192 55.718 0 74.733c.247 24.416 9.179 37.168 20.88 44.53 16.93 10.651 35.46 12.746 38.841 12.746 4.438 0 13.408.19 21.271-1.083 7.838-1.27 14.568-3.999 19.505-5.758q9.89-3.523 19.39-11.188-19.63 21.132-45.962 23.083-56.43 4.179-73.678-31.127-5.63-13.5-5.629-31.203v-68.988q.54-17.575-14.596-20.747c0-5.22-.247-6.584-.247-7.932 0-.332.247-.076.247 0q11.715 2.43 15.24 6.426"/>
    <path fill="#ecd8a4" d="M206.985 240.832q19.02-7.73 19.432-29.385.414-21.656.53-78.054-1.125-15.631-14.238-17.036v-7.919q19.929 2.43 19.929 23.729v76.08q-3.372 23.153-20.736 30.544z"/>
    <path fill="#e5a20e" d="m95.308 107.041 2.446 1.563v7.932q14.497 1.566 14.497 26.128v68.446q.537 38.212 36.247 53.09 41.066 13.194 74.493-5.756 8.5-4.545 13.988-11.08c5.49-6.532-14.288 31.282-62.258 31.282q-47.97 0-65.617-35.117-5.355-14.877-5.355-38.27v-60.223q.614-18.524-16.215-21.167V112.86zM173.927 110.424q-8.091.218-11.658 9.002s8.933-4.29 11.18-8.338q.026.017.478-.664"/>
    <path fill="#e5a20e" d="M211.954 107.041v9.632q14.994 2.553 14.993 16.72v75.615q-2.71 23.994-14.993 28.952s6.44-10.699 6.44-23.288v-74.43q-.59-14.46-16.097-16.3v-11.427q4.856-4.256 9.086-5.474-.002.061.571 0M264.697 110.8q-7.299 2.31-9.639 8.62c-.122.127 6.935-1.757 9.639-7.902z"/>
  </g>
</svg>