<svg width="24" height="24" viewBox="0 0 24 24" fill="none" xmlns="http://www.w3.org/2000/svg">
<g clip-path="url(#clip0_10000_131)">
<rect width="24" height="24" rx="12" fill="#072723"/>
<rect width="24" height="24" rx="12" fill="url(#paint0_linear_10000_131)"/>
<path fill-rule="evenodd" clip-rule="evenodd" d="M13.4538 12.8977C13.369 12.9047 12.9305 12.933 11.9543 12.933C11.1765 12.933 10.6247 12.9118 10.4266 12.8977C7.42101 12.7635 5.17908 12.2399 5.17908 11.6175C5.17908 10.995 7.42101 10.4647 10.4266 10.3306V12.3745C10.6227 12.3886 11.1836 12.4239 11.9614 12.4239C12.8948 12.4239 13.3616 12.3815 13.4467 12.3745V10.3306C16.4452 10.4647 18.6872 10.9883 18.6872 11.6104C18.6872 12.2325 16.4515 12.7635 13.4538 12.8977ZM13.4538 10.1255V8.2934H17.6407V5.5H6.24004V8.2934H10.4266V10.1255C7.02487 10.2823 4.46484 10.9527 4.46484 11.7661C4.46484 12.5796 7.02487 13.2444 10.4266 13.4068V19.2701H13.4538V13.4068C16.8484 13.2499 19.4018 12.5792 19.4018 11.7732C19.4018 10.9672 16.8484 10.2808 13.4538 10.1259V10.1255Z" fill="white"/>
</g>
<defs>
<linearGradient id="paint0_linear_10000_131" x1="-0.379797" y1="11.5788" x2="22.8983" y2="11.5788" gradientUnits="userSpaceOnUse">
<stop stop-color="#D8B35D"/>
<stop offset="1" stop-color="#F5E7BF"/>
</linearGradient>
<clipPath id="clip0_10000_131">
<rect width="24" height="24" rx="12" fill="white"/>
</clipPath>
</defs>
</svg>
