<svg width="24" height="24" viewBox="0 0 24 24" fill="none" xmlns="http://www.w3.org/2000/svg">
<g clip-path="url(#clip0_10000_129)">
<rect width="24" height="24" rx="12" fill="#072723"/>
<g clip-path="url(#clip1_10000_129)">
<path d="M23.9994 11.9991C23.9994 18.6264 18.6274 23.9991 11.9997 23.9991C5.37201 23.9991 0 18.6264 0 11.9991C0 5.37187 5.37214 -0.000976562 11.9997 -0.000976562C18.6273 -0.000976562 23.9994 5.37135 23.9994 11.9991Z" fill="white"/>
<path d="M12.0004 -0.000976562C5.37506 -0.000976562 -0.00647128 5.37947 0.00196303 11.9987C0.00362433 13.323 0.214801 14.5969 0.61115 15.7885H4.20135V5.69377L12.0004 13.4928L19.7991 5.69377V15.7887H23.39C23.787 14.5972 23.997 13.3233 23.9994 11.9989C24.0107 5.37276 18.6264 0.000620843 12.0004 0.000620843V-0.000976562Z" fill="#F26822"/>
<path d="M10.2073 15.2856L6.80374 11.8818V18.234H4.20156L1.74609 18.2345C3.85231 21.69 7.65873 24.0015 12.0009 24.0015C16.343 24.0015 20.1496 21.6895 22.2562 18.234H17.1972V11.8818L13.7935 15.2856L12.0005 17.0786L10.2074 15.2856H10.2073Z" fill="#4D4D4D"/>
</g>
</g>
<defs>
<clipPath id="clip0_10000_129">
<rect width="24" height="24" rx="12" fill="white"/>
</clipPath>
<clipPath id="clip1_10000_129">
<rect width="24" height="24.0026" fill="white" transform="translate(0 -0.000976562)"/>
</clipPath>
</defs>
</svg>
