<svg width="24" height="24" viewBox="0 0 24 24" fill="none" xmlns="http://www.w3.org/2000/svg">
<rect width="24" height="24" rx="12" fill="#020203"/>
<path d="M22.0011 12.3495C22.0011 12.4509 21.9997 12.5523 21.9968 12.6537H21.9853H17.1641V12.4321H12.5126C12.5126 12.3857 12.5141 12.3394 12.5141 12.2944C12.5141 12.2496 12.514 12.2018 12.5126 12.1569H17.1641V11.9367H17.1713H21.9925C21.9983 12.0743 22.0011 12.2119 22.0011 12.3495ZM12.4306 11.3515L16.9827 10.7881L17.0101 11.0083L21.8169 10.4129C21.7709 10.1754 21.7162 9.94074 21.6543 9.71044L16.9223 10.2971L16.9496 10.5172L12.3759 11.0836C12.396 11.1734 12.4148 11.2632 12.4306 11.3544V11.3515ZM12.1931 10.4651L16.5438 9.3715L16.597 9.58588L21.2139 8.42568C21.1189 8.20117 21.0168 7.97957 20.9074 7.76376L16.4258 8.89062L16.479 9.105L12.0924 10.2087C12.1284 10.2942 12.1614 10.3796 12.1931 10.4665V10.4651ZM11.8074 9.63511L15.8745 8.08964L15.9523 8.29677L20.2554 6.66148C20.1158 6.45581 19.969 6.25592 19.8136 6.06185L15.7004 7.62471L15.7781 7.83181L11.662 9.39613C11.7124 9.47435 11.7614 9.554 11.8074 9.63511ZM11.2735 8.86745L14.8657 6.98303L14.9664 7.18003L18.9386 5.09572C18.7558 4.91757 18.5658 4.7481 18.3701 4.58443L14.6368 6.5427L14.7376 6.7397L11.085 8.65599C11.1483 8.7255 11.2116 8.79504 11.272 8.86745H11.2735ZM10.4071 8.03894L13.6596 5.95754L13.7776 6.14439L17.367 3.84717C17.141 3.70233 16.9108 3.56762 16.6733 3.44161L13.3963 5.53895L13.5143 5.7258L10.1682 7.86658C10.2502 7.92163 10.3294 7.97957 10.4085 8.03894H10.4071ZM9.63855 7.55517L12.3644 5.30575L12.504 5.47668L15.5738 2.9419C15.3133 2.84196 15.0456 2.75216 14.775 2.67394L12.0521 4.92191L12.1917 5.09283L9.36656 7.42482C9.45867 7.46538 9.54934 7.50882 9.63855 7.55517ZM8.62107 7.15685L10.7741 5.00012L10.9281 5.15656L13.664 2.42046C13.3675 2.37122 13.0667 2.33501 12.7616 2.31183L10.4287 4.64816L10.5827 4.80459L8.30875 7.08153C8.41383 7.10327 8.51745 7.12787 8.62107 7.15685ZM7.43085 6.97579L9.1478 4.88136L9.31763 5.02186L11.5527 2.2959C11.213 2.31183 10.8777 2.34515 10.5481 2.39439L8.76787 4.5656L8.9377 4.7061L7.07827 6.97435C7.13007 6.97289 7.18332 6.97146 7.23512 6.97146C7.30133 6.97146 7.3661 6.97146 7.43085 6.97435V6.97579ZM6.40185 7.03808L7.72446 4.9784L7.90867 5.09862L9.5076 2.60731C9.14205 2.70291 8.78514 2.81878 8.43684 2.95349L7.31141 4.70754L7.49562 4.82777L6.03054 7.11051C6.15287 7.08153 6.27663 7.0569 6.40185 7.03662V7.03808ZM5.25912 7.35817L6.21042 5.56358L6.40329 5.66786L7.66256 3.29387C7.25815 3.49231 6.86957 3.71681 6.49826 3.96595L5.77437 5.33038L5.96866 5.43466L4.84896 7.54649C4.98138 7.47841 5.11809 7.41611 5.25769 7.35963L5.25912 7.35817ZM4.43879 7.77968L4.84321 6.62381L5.05045 6.69771L5.83625 4.45262C5.43758 4.77128 5.0634 5.11889 4.71656 5.49404L4.37835 6.46016L4.58559 6.53402L4.05597 8.04619C4.17974 7.95205 4.30639 7.86369 4.43736 7.78112L4.43879 7.77968ZM3.42993 8.60673L3.60839 7.76665L3.82282 7.81299L4.18262 6.12122C3.80411 6.605 3.46878 7.12498 3.18239 7.67394L3.34214 7.70871L3.01401 9.09921C3.14209 8.92685 3.28169 8.76173 3.42993 8.60673ZM2.68875 9.58877V8.47638C2.42106 9.18757 2.23109 10.0726 2.12891 10.9402C2.25412 10.4593 2.44409 10.0059 2.68875 9.58877ZM2.1361 13.6777C2.24116 14.4179 2.42538 15.1319 2.68155 15.8113V14.99C2.44553 14.5844 2.25987 14.1441 2.1361 13.6777ZM3.04854 15.539L3.33494 16.8831L3.17519 16.9179C3.46159 17.4683 3.79692 17.9868 4.17542 18.4706L3.81563 16.7788L3.60119 16.8252L3.41985 15.9749C3.28889 15.8359 3.16368 15.6911 3.04854 15.5375V15.539ZM4.0459 16.5384L4.5784 18.0592L4.37115 18.1331L4.70936 19.0992C5.05621 19.4743 5.43039 19.822 5.82906 20.1406L5.04326 17.8956L4.83602 17.9694L4.43016 16.8078C4.29919 16.7238 4.17111 16.6354 4.04734 16.5413L4.0459 16.5384ZM4.84031 17.041L5.9629 19.1586L5.76861 19.2629L6.4925 20.6273C6.86381 20.8764 7.2524 21.101 7.6568 21.2994L6.39753 18.9254L6.20323 19.0297L5.24907 17.2307C5.10946 17.1742 4.97273 17.1105 4.83888 17.0424L4.84031 17.041ZM6.02189 17.4784L7.48843 19.764L7.30422 19.8843L8.42965 21.6383C8.77792 21.773 9.13485 21.8889 9.50041 21.9845L7.90148 19.4932L7.71725 19.6134L6.3932 17.5508C6.26801 17.5306 6.14279 17.5059 6.02046 17.477L6.02189 17.4784ZM7.06962 17.6175L8.92904 19.8857L8.75922 20.0262L10.5395 22.1974C10.8691 22.2467 11.2044 22.28 11.544 22.2959L9.30898 19.5685L9.13918 19.709L7.42222 17.6146C7.36034 17.6175 7.297 17.6175 7.23369 17.6175C7.179 17.6175 7.12288 17.6175 7.06819 17.6146L7.06962 17.6175ZM8.30299 17.5103L10.5755 19.7858L10.4215 19.9422L12.7544 22.2785C13.0595 22.2553 13.3603 22.2191 13.6568 22.1699L10.9223 19.4324L10.7669 19.5902L8.61531 17.435C8.51313 17.4625 8.40807 17.4885 8.30299 17.5103ZM9.36224 17.1699L12.1845 19.5004L12.0449 19.6713L14.7678 21.9193C15.0384 21.8411 15.3061 21.7513 15.5666 21.6514L12.4953 19.1166L12.3557 19.2875L9.63282 17.0395C9.54358 17.0859 9.45291 17.1293 9.3608 17.1699H9.36224ZM10.1624 16.7267L13.5042 18.866L13.3862 19.0529L16.6632 21.1502C16.9007 21.0242 17.1324 20.888 17.3569 20.7446L13.7676 18.4474L13.6496 18.6343L10.4013 16.5558C10.3222 16.6151 10.243 16.6731 10.161 16.7281L10.1624 16.7267ZM11.0835 15.9387L14.7318 17.8521L14.6311 18.0491L18.3643 20.0074C18.5601 19.8437 18.75 19.6742 18.9328 19.4961L14.9607 17.4118L14.8599 17.6088L11.272 15.7273C11.2116 15.7997 11.1497 15.8707 11.085 15.9387H11.0835ZM11.6606 15.1971L15.7709 16.76L15.6932 16.9671L19.8064 18.53C19.9604 18.3359 20.1072 18.136 20.2482 17.9303L15.9451 16.295L15.8673 16.5022L11.806 14.9581C11.7599 15.0392 11.711 15.1189 11.6606 15.1971ZM12.0909 14.386L16.4704 15.4868L16.4171 15.7012L20.8987 16.828C21.0096 16.6122 21.1117 16.3906 21.2067 16.1661L16.5898 15.0059L16.5366 15.2203L12.1917 14.1282C12.16 14.2151 12.1255 14.3006 12.0909 14.386ZM12.3759 13.5111L16.9424 14.076L16.9151 14.2962L21.6471 14.8828C21.709 14.6511 21.7637 14.4164 21.8097 14.1803L17.0029 13.585L16.9755 13.8052L12.4306 13.2417C12.4148 13.333 12.396 13.4228 12.3759 13.5126V13.5111Z" fill="white"/>
</svg>
