<svg width="24" height="24" viewBox="0 0 24 24" fill="none" xmlns="http://www.w3.org/2000/svg">
<g clip-path="url(#clip0_9914_13747)">
<g clip-path="url(#clip1_9914_13747)">
<path d="M12 0C14.3734 0 16.6935 0.703788 18.6668 2.02236C20.6402 3.34094 22.1783 5.21509 23.0866 7.4078C23.9948 9.60051 24.2324 12.0133 23.7694 14.3411C23.3064 16.6689 22.1635 18.8071 20.4853 20.4853C18.8071 22.1635 16.6689 23.3064 14.3411 23.7694C12.0133 24.2324 9.60051 23.9948 7.4078 23.0866C5.21509 22.1783 3.34094 20.6402 2.02236 18.6668C0.703788 16.6935 0 14.3734 0 12C0 8.8174 1.26428 5.76516 3.51472 3.51472C5.76516 1.26428 8.8174 0 12 0Z" fill="#F3B724"/>
<path d="M10.926 4.7998V6.69987H7.75391V8.9891H12.6758L7.75391 15.4979V17.2211H10.926V19.109H12.8751V17.2211H16.0468V14.9319H11.1254L16.0468 8.42307V6.69987H12.8751V4.7998H10.926Z" fill="white"/>
</g>
</g>
<defs>
<clipPath id="clip0_9914_13747">
<rect width="24" height="24" fill="white"/>
</clipPath>
<clipPath id="clip1_9914_13747">
<rect width="24" height="24" fill="white"/>
</clipPath>
</defs>
</svg>
