<svg xmlns="http://www.w3.org/2000/svg" viewBox="0 0 600 600" fill="none">
    <circle cx="300" cy="300" r="300" fill="#000"/>
    <g clip-path="url(#a)">
        <path d="M375.064 335.071c29.853-17.314 49.92-49.647 49.92-86.683v-42.485c0-68.733-55.669-124.466-124.358-124.466-68.688 0-124.385 55.733-124.385 124.466v45.527h75.82v2.96a98.393 98.393 0 0 0-25.9 10.539c-29.853 17.314-49.92 49.647-49.92 86.683v42.485c0 68.732 55.669 124.466 124.358 124.466 68.688 0 124.385-55.734 124.385-124.466V348.57h-75.82v-2.96a98.393 98.393 0 0 0 25.9-10.539Zm-50.169 74.21c0 13.415-10.862 24.285-24.269 24.285-13.406 0-24.268-10.87-24.268-24.285V190.719c0-13.415 10.862-24.285 24.268-24.285 13.407 0 24.269 10.87 24.269 24.285v218.562Z" fill="#F2F2F2"/>
    </g>
    <defs>
        <clipPath id="a">
            <path fill="#fff" d="M176 81h249v438H176z"/>
        </clipPath>
    </defs>
</svg>
