<svg width="256" height="256" viewBox="0 0 256 256" fill="none" xmlns="http://www.w3.org/2000/svg">
<rect width="256" height="256" rx="8" fill="black"/>
<path d="M94.2841 145.768L160.639 219.178L165.812 222H181.58L184.872 218.708V192.354L182.521 186.941L142.289 141.528C132.173 130.232 124.408 119.877 109.581 117.055L111.463 110.702L101.578 111.882L92.634 140.587L94.2841 145.761V145.768ZM144.879 65.2961L47.9378 85.767L42.7642 88.828L35 102.706L36.411 107.178L59.2334 120.355L64.8772 121.065L124.408 108.829C139.235 105.767 152.173 104.125 162.058 92.8297L167.231 98.2424L171.233 89.0672L150.053 66.4759L144.879 65.3041V65.2961ZM189.815 148.822L220.401 54.702V48.5879L212.398 34.9406L207.695 34L184.872 47.1769L181.341 51.6489L162.281 109.299C157.578 123.656 152.396 135.653 157.339 150.001L150.045 151.651L155.928 159.655L186.044 152.831L189.807 148.83L189.815 148.822Z" fill="white"/>
</svg>
