<svg width="13" height="13" viewBox="0 0 32 32" fill="none" xmlns="http://www.w3.org/2000/svg">
    <defs><clipPath id="c"><circle cx="16" cy="16" r="16"/></clipPath></defs>
    <g clip-path="url(#c)">
        <path fill="#000" d="M0 0h32v32H0z"/>
        <path fill="#fff" d="M20.5125 8.20334C19.1337 7.40111 17.6295 7 16 7C14.3705 7 12.8663 7.40111 11.4875 8.20334C10.1086 9.00557 9.00557 10.1086 8.20334 11.4875C7.40111 12.8663 7 14.3705 7 16C7 17.6295 7.40111 19.1337 8.20334 20.5125C9.00557 21.8914 10.1086 22.9944 11.4875 23.7967C12.8663 24.5989 14.3705 25 16 25C17.6295 25 19.1337 24.5989 20.5125 23.7967C21.8914 22.9944 22.9944 21.8914 23.7967 20.5125C24.5989 19.1337 25 17.6295 25 16C25 14.3705 24.5989 12.8663 23.7967 11.4875C22.9944 10.1086 21.8914 9.00557 20.5125 8.20334ZM16.5515 19.2591C15.5237 19.2591 14.7214 18.9582 14.0947 18.3816C13.6685 17.9805 13.3928 17.5042 13.2674 16.9276H22.9944C22.8941 17.7549 22.6435 18.532 22.2925 19.2591H16.5766H16.5515ZM13.2674 15.0975C13.3928 14.546 13.6685 14.0446 14.0947 13.6435C14.7214 13.0669 15.5237 12.766 16.5515 12.766H22.2925C22.6685 13.493 22.8941 14.2702 22.9944 15.0975H13.2674ZM9.90808 12.415C10.5348 11.337 11.3872 10.4596 12.4652 9.83287C13.5432 9.20613 14.7214 8.88022 16.0251 8.88022C17.3287 8.88022 18.507 9.20613 19.585 9.83287C20.1365 10.1588 20.6128 10.5348 21.0641 10.9861H16.5265C15.4986 10.9861 14.571 11.2117 13.7688 11.6379C12.9666 12.0641 12.3398 12.6657 11.9137 13.4178C11.6128 13.9443 11.4123 14.5209 11.312 15.1226H9.08078C9.18106 14.1699 9.48189 13.2674 9.95822 12.4401L9.90808 12.415ZM19.5599 22.1671C18.4819 22.7939 17.3036 23.1198 16 23.1198C14.6964 23.1198 13.5181 22.7939 12.4401 22.1671C11.3621 21.5404 10.5098 20.663 9.88301 19.585C9.40669 18.7577 9.10585 17.8802 9.00557 16.9276H11.2368C11.337 17.5292 11.5376 18.1058 11.8384 18.6323C12.2897 19.3844 12.9164 19.961 13.6936 20.4123C14.4958 20.8384 15.4234 21.0641 16.4513 21.0641H20.9638C20.5376 21.4902 20.0613 21.8663 19.5348 22.1671H19.5599Z"/>
    </g>
</svg>
