<svg width="40" height="40" viewBox="0 0 40 40" fill="none" xmlns="http://www.w3.org/2000/svg">
<rect width="40" height="40" rx="20" fill="#201F21"/>
<path d="M15.1757 22.0054L22.6029 30.2883L23.182 30.6067H24.9469L25.3154 30.2352V27.2617L25.0522 26.651L20.5489 21.5269C19.4167 20.2524 18.5476 19.0841 16.888 18.7657L17.0985 18.0488L15.9921 18.1819L14.991 21.4208L15.1757 22.0045V22.0054ZM20.838 12.9257L9.98721 15.2354L9.40813 15.5808L8.53906 17.1467L8.69699 17.6513L11.2515 19.138L11.8833 19.2181L18.5467 17.8375C20.2063 17.4921 21.6544 17.3068 22.7609 16.0323L23.3399 16.643L23.7878 15.6078L21.4171 13.0588L20.838 12.9266V12.9257ZM25.8686 22.3499L29.2922 11.7303V11.0405L28.3964 9.50066L27.87 9.39453L25.3154 10.8813L24.9201 11.3859L22.7867 17.8905C22.2603 19.5104 21.6803 20.864 22.2335 22.483L21.4171 22.6692L22.0756 23.5722L25.4466 22.8023L25.8677 22.3508L25.8686 22.3499Z" fill="white"/>
</svg>
