<svg xmlns="http://www.w3.org/2000/svg" width="624" height="134" fill="none">
    <path d="m124.681 1.518 5.614 9.649v4.323L108.84 82.041l-.006.006-2.639 2.829-19.713 4.502 17.242 19.617 1.649 3.827v18.634l-2.31 2.328h-11.06l-3.629-1.995-46.545-51.907v-.005l-1.157-3.658 5.892-19.06-25.368 5.256-3.959-.502L1.23 52.596l-.99-3.162 5.447-9.814 3.628-2.164 68-14.475v.006l3.63.828L94.63 38.532l8.266-25.2 2.477-3.162L121.382.853l3.299.665Zm441.111 4.735c35.948 0 58.204 25.444 58.204 61.066 0 35.623-22.256 61.066-58.204 61.066s-58.203-25.443-58.203-61.066c0-35.622 22.255-61.066 58.203-61.066Zm-122.406 1.69c42.798 0 58.203 22.051 58.203 59.37 0 37.32-15.405 59.369-58.203 59.37h-37.66l-1.711-1.697V9.641l1.711-1.698h37.66ZM210.338 9.285l46.349 78.264h1.716V9.285l1.717-1.702h20.6l1.716 1.702v115.691l-1.716 1.702h-24.033l-3.434-1.702-46.349-78.258h-1.716v78.258l-1.717 1.702h-20.6l-1.716-1.702V9.286l1.716-1.703h24.033l3.434 1.702Zm145.712.356h.006l39.376 98.38v16.959l-1.711 1.698h-15.406l-1.711-1.698-8.56-22.049-3.422-1.697h-42.799l-3.422 1.697-8.56 22.049-1.711 1.698h-15.405l-1.711-1.698v-16.959l39.359-98.38 1.711-1.698h22.255l1.711 1.698Zm209.742 16.976c-22.254 0-34.237 16.96-34.237 40.707s11.983 40.713 34.237 40.713 34.238-16.96 34.238-40.713c0-23.752-11.984-40.707-34.238-40.707ZM427.98 29.994v74.633l1.711 1.697h15.406c23.965 0 32.526-11.877 32.526-39.016 0-27.14-8.561-39.011-32.526-39.011h-15.406l-1.711 1.697ZM89.364 42.45c-6.933 7.987-16.009 9.148-26.409 11.313l-9.25 1.916-1.145 3.9c10.4 1.995 15.846 9.318 22.942 17.305l6.148 6.996 4.41-1.005c-3.467-10.146.167-18.629 3.466-28.78l2.796-8.526-2.958-3.119Zm237.593 36.745 1.711 1.697h29.104l1.711-1.697-15.411-40.713h-1.711l-15.404 40.713Z" fill="#fff"/>
</svg>
