<svg xmlns="http://www.w3.org/2000/svg" width="144" height="144" fill="none">
    <path d="m46.644 85.167 49.968 55.281 3.896 2.125h11.874l2.479-2.479v-19.846l-1.771-4.076-30.297-34.199c-7.617-8.506-13.464-16.303-24.63-18.428l1.417-4.785-7.444.889-6.735 21.616 1.243 3.896v.006Zm38.1-60.6L11.743 39.983l-3.896 2.305L2 52.74l1.063 3.368 17.186 9.923 4.25.534 44.83-9.215c11.165-2.305 20.908-3.541 28.352-12.047l3.895 4.076 3.014-6.91-15.95-17.012-3.896-.883v-.006Zm33.839 62.9 23.033-70.877v-4.605l-6.027-10.277L132.047 1l-17.186 9.923-2.659 3.367-14.353 43.414c-3.542 10.81-7.444 19.845-3.722 30.65l-5.493 1.243 4.43 6.027 22.679-5.138 2.834-3.014.006-.006Z" fill="#fff"/>
</svg>
